<svg width="100" height="100" viewBox="0 0 100 100" fill="none" xmlns="http://www.w3.org/2000/svg">
<path d="M78.222 45.687L71.249 38.714L73 36.962V34.462L65.54 27.001H63.04L61.288 28.753L54.314 21.778C51.942 19.407 48.059 19.407 45.686 21.778L38.712 28.752L36.962 27.001H34.46L27 34.464V36.964L28.752 38.715L21.78 45.687C19.407 48.06 19.407 51.943 21.78 54.314L28.753 61.288L27 63.04V65.54L34.461 73.001H36.963L38.715 71.248L45.687 78.22C48.06 80.593 51.943 80.593 54.315 78.22L61.287 71.248L63.041 73.001H65.541L73 65.542V63.04L71.248 61.287L78.222 54.313C80.593 51.942 80.593 48.06 78.222 45.687M75.399 53.884L69.622 59.66L68.963 59.001H66.461L59 66.464V68.964L59.659 69.623L53.884 75.397C51.749 77.534 48.253 77.534 46.117 75.397L40.341 69.621L41 68.962V66.462L33.54 59.001H31.04L30.38 59.661L24.603 53.884C22.466 51.749 22.466 48.253 24.603 46.116L30.378 40.34L31.04 41.001H33.54L41 33.542V31.04L40.339 30.379L46.117 24.601C48.253 22.466 51.749 22.466 53.884 24.601L59.661 30.379L59 31.04V33.54L66.461 41.001H68.963L69.624 40.34L75.399 46.116C77.534 48.253 77.534 51.749 75.399 53.884" fill="#D99BFF"/>
<path d="M53.576 44.901L51.15 42.475C50.8444 42.1708 50.4307 42.0001 49.9995 42.0001C49.5683 42.0001 49.1546 42.1708 48.849 42.475L46.422 44.902L39 39.001L44.9 46.425L42.474 48.851C42.1698 49.1566 41.9991 49.5703 41.9991 50.0015C41.9991 50.4327 42.1698 50.8464 42.474 51.152L44.9 53.578L39 60.999L46.422 55.099L48.85 57.527C49.1556 57.8312 49.5693 58.0019 50.0005 58.0019C50.4317 58.0019 50.8454 57.8312 51.151 57.527L53.578 55.1L61 61.001L55.1 53.578L57.527 51.151C57.8312 50.8454 58.0019 50.4317 58.0019 50.0005C58.0019 49.5693 57.8312 49.1557 57.527 48.85L55.1 46.423L61 39.001L53.576 44.901" fill="#D99BFF"/>
</svg>

